<svg width="512" height="512" viewBox="0 0 512 512" fill="none" xmlns="http://www.w3.org/2000/svg">
<circle cx="256" cy="256" r="256" fill="#7D4503"/>
<circle cx="256.5" cy="256.5" r="232" stroke="white" stroke-width="3"/>
<circle cx="256.5" cy="256.5" r="217" stroke="white" stroke-width="3"/>
<path d="M224.554 261.16H194.674V257.08C198.754 257.08 201.594 256.76 203.194 256.12C204.794 255.48 205.594 254.52 205.594 253.24C205.594 252.68 205.394 251.8 204.994 250.6C203.714 247.24 202.474 244 201.274 240.88C200.074 237.68 198.834 234.48 197.554 231.28H164.794C163.754 234.16 162.754 237.04 161.794 239.92C160.834 242.8 159.834 245.72 158.794 248.68C158.154 250.44 157.834 251.76 157.834 252.64C157.834 253.6 158.074 254.32 158.554 254.8C159.354 256.32 162.634 257.08 168.394 257.08V261.16H142.714V257.08C145.834 257.08 148.154 256.44 149.674 255.16C151.354 253.72 152.914 251 154.354 247L178.474 178.6C179.594 178.04 180.634 177.52 181.594 177.04C182.634 176.48 183.674 175.92 184.714 175.36C189.514 187.84 194.194 200.2 198.754 212.44C203.394 224.6 208.114 236.92 212.914 249.4C213.954 252.12 215.194 254.08 216.634 255.28C218.314 256.48 220.954 257.08 224.554 257.08V261.16ZM196.114 226.48L180.754 185.68C178.354 192.48 175.914 199.28 173.434 206.08C171.034 212.88 168.634 219.68 166.234 226.48H196.114ZM301.834 237.76C301.834 245.28 299.074 251.12 293.554 255.28C288.434 259.2 281.594 261.16 273.034 261.16H234.034V257.08C238.354 257.08 241.194 256.64 242.554 255.76C243.994 254.48 244.714 252.68 244.714 250.36V188.44C244.714 187.48 244.554 186.72 244.234 186.16C243.834 185.12 243.354 184.28 242.794 183.64C241.194 182.2 238.434 181.48 234.514 181.48V177.52H292.234C293.594 180.96 294.914 184.36 296.194 187.72C297.554 191.08 298.914 194.48 300.274 197.92C299.874 198.16 299.474 198.44 299.074 198.76C298.674 199 298.274 199.2 297.874 199.36C294.354 193.44 290.634 189.16 286.714 186.52C282.554 183.32 277.554 181.72 271.714 181.72H260.434C257.874 181.72 255.794 182.28 254.194 183.4C252.994 184.36 252.394 186.04 252.394 188.44V214.36H273.994C282.634 214.36 289.554 216.6 294.754 221.08C299.474 225.56 301.834 231.12 301.834 237.76ZM293.674 237.76C293.674 232.4 291.794 227.92 288.034 224.32C284.914 221.44 281.394 219.72 277.474 219.16C276.674 219 275.994 218.92 275.434 218.92H252.394V250.24C252.394 253.44 253.594 255.44 255.994 256.24C256.634 256.4 257.314 256.52 258.034 256.6C258.834 256.76 259.794 256.84 260.914 256.84H274.714C275.114 256.84 275.474 256.8 275.794 256.72C276.114 256.72 276.474 256.68 276.874 256.6C281.194 256.12 284.714 254.64 287.434 252.16C291.594 248.72 293.674 243.92 293.674 237.76ZM368.793 238.72C368.793 242.56 368.073 246.08 366.633 249.28C365.273 252.4 363.313 255.08 360.753 257.32C358.193 259.56 355.153 261.28 351.633 262.48C348.113 263.68 344.193 264.28 339.873 264.28C336.433 264.28 333.153 263.8 330.033 262.84C326.913 261.88 324.153 260.52 321.753 258.76C319.433 257.08 317.553 255.04 316.113 252.64C314.753 250.24 314.073 247.6 314.073 244.72C314.073 242.64 314.593 241 315.633 239.8C316.753 238.52 318.273 237.88 320.193 237.88C323.953 237.88 325.833 239.84 325.833 243.76C325.833 244.72 325.673 245.52 325.353 246.16C325.113 246.72 324.833 247.24 324.513 247.72C324.193 248.2 323.873 248.64 323.553 249.04C323.313 249.36 323.193 249.72 323.193 250.12C323.193 251.96 323.753 253.52 324.873 254.8C325.993 256 327.393 256.96 329.073 257.68C330.753 258.4 332.553 258.92 334.473 259.24C336.393 259.56 338.193 259.72 339.873 259.72C342.913 259.72 345.713 259.16 348.273 258.04C350.833 257 352.993 255.56 354.753 253.72C356.593 251.8 357.993 249.56 358.953 247C359.993 244.36 360.513 241.48 360.513 238.36C360.513 235.88 359.793 233.48 358.353 231.16C356.993 228.76 355.193 226.68 352.953 224.92C350.793 223.08 348.273 221.64 345.393 220.6C342.593 219.48 339.753 218.92 336.873 218.92C337.033 218.92 336.673 219 335.793 219.16C334.913 219.32 334.073 219.4 333.273 219.4C332.393 219.4 331.753 219 331.353 218.2C330.953 217.32 330.753 216.56 330.753 215.92C330.753 214.56 331.313 213.68 332.433 213.28C332.913 213.28 333.673 213.36 334.713 213.52C335.753 213.6 336.473 213.64 336.873 213.64C340.153 213.64 343.113 213.12 345.753 212.08C348.393 210.96 350.633 209.56 352.473 207.88C354.313 206.12 355.713 204.2 356.673 202.12C357.713 199.96 358.233 197.84 358.233 195.76C358.233 193.36 357.753 191.12 356.793 189.04C355.833 186.96 354.553 185.2 352.953 183.76C351.433 182.24 349.673 181.08 347.673 180.28C345.673 179.4 343.673 178.96 341.673 178.96C339.433 178.96 337.193 179.28 334.953 179.92C332.793 180.48 330.713 181.64 328.713 183.4C326.793 185.08 325.033 187.48 323.433 190.6C321.833 193.64 320.553 197.64 319.593 202.6C318.953 202.52 318.353 202.48 317.793 202.48C317.313 202.4 316.793 202.32 316.233 202.24C316.393 198.08 316.513 193.92 316.593 189.76C316.673 185.6 316.793 181.36 316.953 177.04H319.473C319.873 177.92 320.313 178.8 320.793 179.68C321.273 180.56 321.713 181.44 322.113 182.32C324.433 179.68 327.233 177.76 330.513 176.56C333.873 175.28 337.593 174.64 341.673 174.64C345.273 174.64 348.593 175.12 351.633 176.08C354.673 177.04 357.273 178.44 359.433 180.28C361.593 182.12 363.273 184.36 364.473 187C365.673 189.56 366.273 192.48 366.273 195.76C366.273 205.04 360.753 211.88 349.713 216.28C352.593 217.16 355.193 218.36 357.513 219.88C359.833 221.32 361.833 223.04 363.513 225.04C365.193 226.96 366.473 229.12 367.353 231.52C368.313 233.84 368.793 236.24 368.793 238.72ZM212.778 382.24H174.018V378.28C179.858 378.28 183.978 377.76 186.378 376.72C188.618 375.76 189.738 374.08 189.738 371.68V311.68C189.738 309.84 189.258 308.6 188.298 307.96C187.418 307.24 185.818 306.88 183.498 306.88H173.658V303.04C176.218 302.8 178.578 302.44 180.738 301.96C182.978 301.4 185.018 300.76 186.858 300.04C189.658 299 193.178 297.2 197.418 294.64V371.68C197.418 373.2 197.818 374.44 198.618 375.4C199.498 376.28 201.098 376.96 203.418 377.44C204.538 377.68 205.858 377.88 207.378 378.04C208.978 378.2 210.778 378.28 212.778 378.28V382.24ZM281.315 339.4C281.315 352.2 278.955 362.64 274.235 370.72C269.195 379.44 262.315 383.8 253.595 383.8C244.875 383.8 237.995 379.44 232.955 370.72C228.235 362.64 225.875 352.2 225.875 339.4C225.875 326.6 228.235 316.16 232.955 308.08C237.995 299.44 244.875 295.12 253.595 295.12C262.315 295.12 269.195 299.44 274.235 308.08C278.955 316.16 281.315 326.6 281.315 339.4ZM273.035 339.4C273.035 328.44 271.555 319.4 268.595 312.28C265.155 303.8 260.155 299.56 253.595 299.56C247.035 299.56 242.075 303.8 238.715 312.28C235.675 319.8 234.155 328.84 234.155 339.4C234.155 349.96 235.675 359 238.715 366.52C242.075 375 247.035 379.24 253.595 379.24C260.155 379.24 265.155 375 268.595 366.52C271.555 359.4 273.035 350.36 273.035 339.4ZM315.768 346.12C316.888 343.24 318.888 338.96 321.768 333.28C324.728 327.52 328.608 320.4 333.408 311.92C334.128 310.72 334.808 309.52 335.448 308.32C336.168 307.04 336.888 305.76 337.608 304.48H314.568C313.128 304.48 311.808 304.52 310.608 304.6C309.408 304.6 308.248 304.72 307.128 304.96C306.088 305.2 305.008 305.64 303.888 306.28C302.768 306.92 301.568 307.84 300.288 309.04C298.288 311.04 296.408 315 294.648 320.92C294.248 320.76 293.808 320.64 293.328 320.56C292.848 320.4 292.368 320.24 291.888 320.08C292.768 316.24 293.648 312.4 294.528 308.56C295.408 304.64 296.288 300.72 297.168 296.8H344.928V301.84C344.608 302.4 344.328 302.96 344.088 303.52C343.848 304 343.568 304.52 343.248 305.08C341.888 307.32 340.608 309.48 339.408 311.56C338.208 313.64 337.048 315.72 335.928 317.8C331.528 325 328.168 331.76 325.848 338.08C324.728 340.88 323.728 343.88 322.848 347.08C321.968 350.2 321.208 353.48 320.568 356.92C319.928 359.96 319.408 362.8 319.008 365.44C318.688 368 318.528 370.44 318.528 372.76V375.28C318.448 378.24 318.048 380.44 317.328 381.88C316.608 383.32 315.208 384.04 313.128 384.04C311.368 384.04 310.128 383.32 309.408 381.88C308.688 380.6 308.328 378.8 308.328 376.48V375.52C308.488 371.6 309.168 367.2 310.368 362.32C311.648 357.44 313.448 352.04 315.768 346.12Z" fill="white"/>
</svg>
